<?xml version="1.0" encoding="utf-8"?>
<!-- Generator: Adobe Illustrator 28.1.0, SVG Export Plug-In . SVG Version: 6.00 Build 0)  -->
<svg version="1.1" id="Layer_1" xmlns="http://www.w3.org/2000/svg" xmlns:xlink="http://www.w3.org/1999/xlink" x="0px" y="0px"
	 viewBox="0 0 100 100" style="enable-background:new 0 0 100 100;" xml:space="preserve">
<g>
	<path d="M93.99,58.27c-0.28-7.16-1.98-19.33-4.65-25.98c-3.27-8.13-9.88-13.11-18.11-16.11c-8.23-3-16.66-3.6-23.78-3.11
		c-9.65,0.66-17.24,3.76-24.52,10.61C15.65,30.54,9.3,42.04,7.05,51.79C5.96,56.48,5.46,62.1,6.78,66.73
		c1.78,6.22,5.92,10.62,9.2,12.81c2.84,1.9,9.08,4.6,13.36,5.3C42.87,87.07,56.9,87.71,67,86.43c4.9-0.62,14.12-1.48,20.67-7.92
		C91.45,74.79,94.26,65.14,93.99,58.27z M33.63,57.31c-0.09,1.4-1.07,2.44-2.5,2.5c-1.29,0.06-2.59-1.19-2.5-2.5
		c0.22-3.24,0.43-6.48,0.65-9.73c0.09-1.4,1.07-2.44,2.5-2.5c1.29-0.06,2.59,1.19,2.5,2.5C34.07,50.82,33.85,54.07,33.63,57.31z
		 M37.84,42.73c-2.9-2.07-5.81-4.13-8.71-6.2c-1.14-0.81-1.58-2.13-0.9-3.42c0.29-0.54,0.91-0.99,1.49-1.15
		c0.57-0.16,1.43-0.1,1.93,0.25c2.9,2.07,5.81,4.13,8.71,6.2c1.14,0.81,1.58,2.13,0.9,3.42c-0.29,0.54-0.91,0.99-1.49,1.15
		C39.2,43.14,38.34,43.08,37.84,42.73z M54.97,66.73c-0.54,0.03-1.08,0.08-1.62,0.14c-0.13,0.02-0.52,0.08-0.59,0.09
		c-0.22,0.04-0.44,0.08-0.66,0.12c-1.09,0.22-2.17,0.51-3.22,0.87c-0.45,0.15-0.9,0.32-1.34,0.51c-0.12,0.05-0.49,0.22-0.54,0.24
		c-0.27,0.13-0.54,0.26-0.8,0.39c-0.99,0.51-1.94,1.09-2.86,1.73c-1.15,0.8-2.73,0.17-3.42-0.9c-0.77-1.2-0.17-2.68,0.9-3.42
		c4.16-2.89,9.11-4.5,14.15-4.77c1.4-0.08,2.44,1.21,2.5,2.5C57.54,65.63,56.28,66.66,54.97,66.73z M64.78,53.16
		c0,1.4-1.15,2.44-2.5,2.5c-1.35,0.06-2.5-1.19-2.5-2.5c0-2.95,0-5.89,0-8.84c0-1.4,1.15-2.44,2.5-2.5c1.35-0.06,2.5,1.19,2.5,2.5
		C64.78,47.26,64.78,50.21,64.78,53.16z M68.24,36.47c-4.94,1.65-9.88,3.29-14.82,4.94c-1.33,0.44-2.68-0.51-3.08-1.75
		c-0.43-1.33,0.51-2.66,1.75-3.08c4.94-1.65,9.88-3.29,14.82-4.94c1.33-0.44,2.68,0.51,3.08,1.75
		C70.42,34.73,69.48,36.06,68.24,36.47z"/>
</g>
</svg>
